{"title":"Pirates.of.Silicon.Valley.1999-[WideScreen]-DVDRip.H.264.AC3.MKV","uid":10759378,"size":2081782574,"categoryP":"video","categoryS":"movies","magnet":"?xt=urn:btih:9234084102ba64530d97d075b915a27290033a3f&amp;dn=Pirates.of.Silicon.Valley.1999-%5BWideScreen%5D-DVDRip.H.264.AC3.MKV&amp;tr=udp%3A%2F%2Ftracker.openbittorrent.com%3A80&amp;tr=udp%3A%2F%2Fopen.demonii.com%3A1337&amp;tr=udp%3A%2F%2Ftracker.coppersurfer.tk%3A6969&amp;tr=udp%3A%2F%2Fexodus.desync.com%3A6969","seeders":1,"leechers":2,"uploader":"Raven1969","files":-1,"time":1407960839,"description":"Pirates.of.Silicon.Valley.1999-[WideScreen]-DVDRip.H.264.AC3.MKV.HighQuality-Raven\n\n\n\nLots of tweeks here and there to make this Version easily the best copy i have seen :-)\n\n\nPlease comment on quality thanks.\n\n\nIMDB = http://www.imdb.com/title/tt0168122\n\n\nHistory of Apple and Microsoft.\n\nThis is a semi-humorous biographical film about the men who made the world of technology what it is today, their struggles during college, the founding of their companies, and the ingenious actions they took to build up the global corporate empires of Apple Computer Corporation and Microsoft Inc.\n\n\nVideo Info :\n\nGeneral\n\nFormat                                   : Matroska\nFormat version                           : Version 4 / Version 2\nFile size                                : 1.94 GiB\nDuration                                 : 1h 36mn\nOverall bit rate                         : 2 869 Kbps\nEncoded date                             : UTC 2014-08-13 16:01:14\n\n\nVideo\nID                                       : 1\nFormat                                   : AVC\nFormat/Info                              : Advanced Video Codec\nFormat profile                           : &lt;a class=&quot;__cf_email__&quot; href=&quot;/cdn-cgi/l/email-protection&quot; data-cfemail=&quot;d994b8b0b79995edf7e8&quot;&gt;[email&amp;#160;protected]&lt;/a&gt;&lt;script cf-hash='f9e31' type=&quot;text/javascript&quot;&gt;\n/* &lt;![CDATA[ */!function(){try{var t=&quot;currentScript&quot;in document?document.currentScript:function(){for(var t=document.getElementsByTagName(&quot;script&quot;),e=t.length;e--;)if(t[e].getAttribute(&quot;cf-hash&quot;))return t[e]}();if(t&amp;&amp;t.previousSibling){var e,r,n,i,c=t.previousSibling,a=c.getAttribute(&quot;data-cfemail&quot;);if(a){for(e=&quot;&quot;,r=parseInt(a.substr(0,2),16),n=2;a.length-n;n+=2)i=parseInt(a.substr(n,2),16)^r,e+=String.fromCharCode(i);e=document.createTextNode(e),c.parentNode.replaceChild(e,c)}}}catch(u){}}();/* ]]&gt; */&lt;/script&gt;\nFormat settings, CABAC                   : Yes\nFormat settings, ReFrames                : 2 frames\nCodec ID                                 : V_MPEG4/ISO/AVC\nDuration                                 : 1h 36mn\nBit rate                                 : 2 500 Kbps\nWidth                                    : 1 280 pixels\nHeight                                   : 720 pixels\nDisplay aspect ratio                     : 16:9\nFrame rate mode                          : Constant\nFrame rate                               : 23.976 fps\nColor space                              : YUV\nChroma subsampling                       : 4:2:0\nBit depth                                : 8 bits\nScan type                                : Progressive\nBits/(Pixel*Frame)                       : 0.113\nStream size                              : 1.64 GiB (85%)\nWriting library                          : x264 core 142 r2409\n\nLanguage                                 : English\nDefault                                  : Yes\nForced                                   : No\n\nAudio\nID                                       : 2\nFormat                                   : AC-3\nFormat/Info                              : Audio Coding 3\nMode extension                           : CM (complete main)\nFormat settings, Endianness              : Big\nCodec ID                                 : A_AC3\nDuration                                 : 1h 36mn\nBit rate mode                            : Constant\nBit rate                                 : 384 Kbps\nChannel(s)                               : 2 channels\nChannel positions                        : Front: L R\nSampling rate                            : 48.0 KHz\nBit depth                                : 16 bits\nCompression mode                         : Lossy\nDelay relative to video                  : 1mn 5s\nStream size                              : 266 MiB (13%)\nLanguage                                 : English\nDefault                                  : Yes\nForced                                   : No","torrent":{"xt":"urn:btih:9234084102ba64530d97d075b915a27290033a3f","amp;dn":"Pirates.of.Silicon.Valley.1999-%5BWideScreen%5D-DVDRip.H.264.AC3.MKV","amp;tr":["udp%3A%2F%2Ftracker.openbittorrent.com%3A80","udp%3A%2F%2Fopen.demonii.com%3A1337","udp%3A%2F%2Ftracker.coppersurfer.tk%3A6969","udp%3A%2F%2Fexodus.desync.com%3A6969"],"infoHash":"9234084102ba64530d97d075b915a27290033a3f","infoHashBuffer":{"type":"Buffer","data":[146,52,8,65,2,186,100,83,13,151,208,117,185,21,162,114,144,3,58,63]},"announce":[],"urlList":[]}}